<svg xmlns="http://www.w3.org/2000/svg" width="1600" height="360" viewBox="0 0 1600 360" role="img" aria-labelledby="title desc"><title id="title">Languages in public projects</title><desc id="desc">Python in 9 repositories, JavaScript in 2, HTML in 2, CSS in 1. Repository-presence counts on 26 September 2026; reference forks excluded; Python notebooks included.</desc><rect width="1600" height="360" fill="#f5f1e9" rx="8"/><g font-family="Arial,Helvetica,sans-serif"><text x="52" y="47" font-size="18" letter-spacing="3" fill="#686154">PUBLIC CODE / PROJECT COVERAGE</text><text x="52" y="119" font-size="33" font-weight="600" fill="#20221f">Python</text><text x="52" y="209" font-size="78" font-weight="500" fill="#20221f">9</text><text x="114" y="202" font-size="22" fill="#686154">repositories</text><text x="52" y="254" font-size="20" fill="#686154">Research &amp; analysis</text><rect x="52" y="287" width="27" height="7" rx="2" fill="#8b7551"/><rect x="85" y="287" width="27" height="7" rx="2" fill="#8b7551"/><rect x="118" y="287" width="27" height="7" rx="2" fill="#8b7551"/><rect x="151" y="287" width="27" height="7" rx="2" fill="#8b7551"/><rect x="184" y="287" width="27" height="7" rx="2" fill="#8b7551"/><rect x="217" y="287" width="27" height="7" rx="2" fill="#8b7551"/><rect x="250" y="287" width="27" height="7" rx="2" fill="#8b7551"/><rect x="283" y="287" width="27" height="7" rx="2" fill="#8b7551"/><rect x="316" y="287" width="27" height="7" rx="2" fill="#8b7551"/><text x="440" y="119" font-size="33" font-weight="600" fill="#20221f">JavaScript</text><text x="440" y="209" font-size="78" font-weight="500" fill="#20221f">2</text><text x="502" y="202" font-size="22" fill="#686154">repositories</text><text x="440" y="254" font-size="20" fill="#686154">Web interaction</text><rect x="440" y="287" width="27" height="7" rx="2" fill="#8b7551"/><rect x="473" y="287" width="27" height="7" rx="2" fill="#8b7551"/><rect x="506" y="287" width="27" height="7" rx="2" fill="#ded8cc"/><rect x="539" y="287" width="27" height="7" rx="2" fill="#ded8cc"/><rect x="572" y="287" width="27" height="7" rx="2" fill="#ded8cc"/><rect x="605" y="287" width="27" height="7" rx="2" fill="#ded8cc"/><rect x="638" y="287" width="27" height="7" rx="2" fill="#ded8cc"/><rect x="671" y="287" width="27" height="7" rx="2" fill="#ded8cc"/><rect x="704" y="287" width="27" height="7" rx="2" fill="#ded8cc"/><text x="828" y="119" font-size="33" font-weight="600" fill="#20221f">HTML</text><text x="828" y="209" font-size="78" font-weight="500" fill="#20221f">2</text><text x="890" y="202" font-size="22" fill="#686154">repositories</text><text x="828" y="254" font-size="20" fill="#686154">Web structure</text><rect x="828" y="287" width="27" height="7" rx="2" fill="#8b7551"/><rect x="861" y="287" width="27" height="7" rx="2" fill="#8b7551"/><rect x="894" y="287" width="27" height="7" rx="2" fill="#ded8cc"/><rect x="927" y="287" width="27" height="7" rx="2" fill="#ded8cc"/><rect x="960" y="287" width="27" height="7" rx="2" fill="#ded8cc"/><rect x="993" y="287" width="27" height="7" rx="2" fill="#ded8cc"/><rect x="1026" y="287" width="27" height="7" rx="2" fill="#ded8cc"/><rect x="1059" y="287" width="27" height="7" rx="2" fill="#ded8cc"/><rect x="1092" y="287" width="27" height="7" rx="2" fill="#ded8cc"/><text x="1216" y="119" font-size="33" font-weight="600" fill="#20221f">CSS</text><text x="1216" y="209" font-size="78" font-weight="500" fill="#20221f">1</text><text x="1278" y="202" font-size="22" fill="#686154">repository</text><text x="1216" y="254" font-size="20" fill="#686154">Web presentation</text><rect x="1216" y="287" width="27" height="7" rx="2" fill="#8b7551"/><rect x="1249" y="287" width="27" height="7" rx="2" fill="#ded8cc"/><rect x="1282" y="287" width="27" height="7" rx="2" fill="#ded8cc"/><rect x="1315" y="287" width="27" height="7" rx="2" fill="#ded8cc"/><rect x="1348" y="287" width="27" height="7" rx="2" fill="#ded8cc"/><rect x="1381" y="287" width="27" height="7" rx="2" fill="#ded8cc"/><rect x="1414" y="287" width="27" height="7" rx="2" fill="#ded8cc"/><rect x="1447" y="287" width="27" height="7" rx="2" fill="#ded8cc"/><rect x="1480" y="287" width="27" height="7" rx="2" fill="#ded8cc"/></g></svg>
