<svg xmlns="http://www.w3.org/2000/svg" width="420" height="336" viewBox="0 0 420 336" role="img" aria-labelledby="title desc">
  <title id="title">Languages in public projects</title>
  <desc id="desc">Python in 9 repositories, JavaScript in 2, HTML in 2, CSS in 1. Repository-presence counts on 26 September 2026; reference forks excluded; Python notebooks included. These are repository counts, not proficiency ratings.</desc>
  <rect x=".75" y=".75" width="418.5" height="334.5" rx="12" fill="#101820" stroke="#33444E" stroke-width="1.5"/>
  <text x="20" y="27" font-family="Arial,Helvetica,sans-serif" font-size="11.5" font-weight="600" letter-spacing="1.25" fill="#F3F1E9">PUBLIC CODE / LANGUAGE COVERAGE</text>
  <path d="M20 41H400" stroke="#33444E"/><path d="M20 41H60" stroke="#75C9C0" stroke-width="2"/>
  <g transform="translate(20 58)" font-family="Arial,Helvetica,sans-serif">
    <rect x=".5" y=".5" width="183" height="101" rx="8" fill="#131F29" stroke="#33444E"/>
    <text x="14" y="29" fill="#75C9C0" font-size="18" font-weight="600">Python</text>
    <text x="12" y="82" fill="#F3F1E9" font-size="48" font-weight="600" letter-spacing="-1.5">9</text>
    <text x="51" y="79" fill="#AAB8C1" font-size="15">repositories</text>
  </g>
  <g transform="translate(216 58)" font-family="Arial,Helvetica,sans-serif">
    <rect x=".5" y=".5" width="183" height="101" rx="8" fill="#131F29" stroke="#33444E"/>
    <text x="14" y="29" fill="#779BE7" font-size="18" font-weight="600">JavaScript</text>
    <text x="12" y="82" fill="#F3F1E9" font-size="48" font-weight="600" letter-spacing="-1.5">2</text>
    <text x="51" y="79" fill="#AAB8C1" font-size="15">repositories</text>
  </g>
  <g transform="translate(20 172)" font-family="Arial,Helvetica,sans-serif">
    <rect x=".5" y=".5" width="183" height="101" rx="8" fill="#131F29" stroke="#33444E"/>
    <text x="14" y="29" fill="#75C9C0" font-size="18" font-weight="600">HTML</text>
    <text x="12" y="82" fill="#F3F1E9" font-size="48" font-weight="600" letter-spacing="-1.5">2</text>
    <text x="51" y="79" fill="#AAB8C1" font-size="15">repositories</text>
  </g>
  <g transform="translate(216 172)" font-family="Arial,Helvetica,sans-serif">
    <rect x=".5" y=".5" width="183" height="101" rx="8" fill="#131F29" stroke="#33444E"/>
    <text x="14" y="29" fill="#779BE7" font-size="18" font-weight="600">CSS</text>
    <text x="12" y="82" fill="#F3F1E9" font-size="48" font-weight="600" letter-spacing="-1.5">1</text>
    <text x="51" y="79" fill="#AAB8C1" font-size="15">repository</text>
  </g>
  <g font-family="Arial,Helvetica,sans-serif" font-size="11.5" fill="#AAB8C1">
    <text x="20" y="302">Repository-presence counts · Reference forks excluded</text>
    <text x="20" y="320">Python notebooks included</text>
  </g>
</svg>
